<mxfile host="app.diagrams.net" modified="2022-05-04T12:28:24.362Z" agent="5.0 (Windows)" etag="tIzVeaV-DO9lvPPafgbS" version="17.2.4" type="github">
  <diagram id="AT8bjiUYHG1cXRGal8kz" name="Page-1">
    <mxGraphModel dx="981" dy="532" grid="1" gridSize="10" guides="1" tooltips="1" connect="1" arrows="1" fold="1" page="1" pageScale="1" pageWidth="850" pageHeight="1100" math="0" shadow="0">
      <root>
        <mxCell id="0" />
        <mxCell id="1" parent="0" />
        <mxCell id="6IBHpJLKZ1l4oTfqmNe9-1" value="Официант" style="ellipse;whiteSpace=wrap;html=1;aspect=fixed;" vertex="1" parent="1">
          <mxGeometry x="80" y="160" width="80" height="80" as="geometry" />
        </mxCell>
        <mxCell id="6IBHpJLKZ1l4oTfqmNe9-2" value="" style="endArrow=classic;html=1;rounded=0;exitX=0.5;exitY=1;exitDx=0;exitDy=0;entryX=0.5;entryY=0;entryDx=0;entryDy=0;" edge="1" parent="1" source="6IBHpJLKZ1l4oTfqmNe9-1" target="6IBHpJLKZ1l4oTfqmNe9-3">
          <mxGeometry width="50" height="50" relative="1" as="geometry">
            <mxPoint x="400" y="420" as="sourcePoint" />
            <mxPoint x="370" y="280" as="targetPoint" />
            <Array as="points" />
          </mxGeometry>
        </mxCell>
        <mxCell id="6IBHpJLKZ1l4oTfqmNe9-3" value="Шеф-Повар" style="ellipse;whiteSpace=wrap;html=1;aspect=fixed;" vertex="1" parent="1">
          <mxGeometry x="80" y="340" width="80" height="80" as="geometry" />
        </mxCell>
        <mxCell id="6IBHpJLKZ1l4oTfqmNe9-4" value="Отдает заказ" style="text;html=1;align=center;verticalAlign=middle;resizable=0;points=[];autosize=1;strokeColor=none;fillColor=none;" vertex="1" parent="1">
          <mxGeometry x="120" y="270" width="90" height="20" as="geometry" />
        </mxCell>
        <mxCell id="6IBHpJLKZ1l4oTfqmNe9-7" value="Посетители" style="ellipse;whiteSpace=wrap;html=1;aspect=fixed;" vertex="1" parent="1">
          <mxGeometry x="220" y="30" width="80" height="80" as="geometry" />
        </mxCell>
        <mxCell id="6IBHpJLKZ1l4oTfqmNe9-8" value="" style="endArrow=classic;html=1;rounded=0;entryX=0.5;entryY=0;entryDx=0;entryDy=0;exitX=0;exitY=0.5;exitDx=0;exitDy=0;" edge="1" parent="1" source="6IBHpJLKZ1l4oTfqmNe9-7" target="6IBHpJLKZ1l4oTfqmNe9-1">
          <mxGeometry width="50" height="50" relative="1" as="geometry">
            <mxPoint x="400" y="420" as="sourcePoint" />
            <mxPoint x="450" y="370" as="targetPoint" />
          </mxGeometry>
        </mxCell>
        <mxCell id="6IBHpJLKZ1l4oTfqmNe9-9" value="Принимает заказ" style="text;html=1;align=center;verticalAlign=middle;resizable=0;points=[];autosize=1;strokeColor=none;fillColor=none;" vertex="1" parent="1">
          <mxGeometry x="40" y="100" width="120" height="20" as="geometry" />
        </mxCell>
        <mxCell id="6IBHpJLKZ1l4oTfqmNe9-10" value="" style="endArrow=classic;html=1;rounded=0;exitX=1;exitY=0.5;exitDx=0;exitDy=0;entryX=0;entryY=0.5;entryDx=0;entryDy=0;" edge="1" parent="1" source="6IBHpJLKZ1l4oTfqmNe9-3" target="6IBHpJLKZ1l4oTfqmNe9-11">
          <mxGeometry width="50" height="50" relative="1" as="geometry">
            <mxPoint x="400" y="420" as="sourcePoint" />
            <mxPoint x="290" y="380" as="targetPoint" />
          </mxGeometry>
        </mxCell>
        <mxCell id="6IBHpJLKZ1l4oTfqmNe9-11" value="Администратор " style="ellipse;whiteSpace=wrap;html=1;aspect=fixed;" vertex="1" parent="1">
          <mxGeometry x="470" y="335" width="90" height="90" as="geometry" />
        </mxCell>
        <mxCell id="6IBHpJLKZ1l4oTfqmNe9-12" value="Проверяет готовое блюдо" style="text;html=1;align=center;verticalAlign=middle;resizable=0;points=[];autosize=1;strokeColor=none;fillColor=none;" vertex="1" parent="1">
          <mxGeometry x="180" y="390" width="160" height="20" as="geometry" />
        </mxCell>
        <mxCell id="6IBHpJLKZ1l4oTfqmNe9-13" value="Уборщица" style="ellipse;whiteSpace=wrap;html=1;aspect=fixed;" vertex="1" parent="1">
          <mxGeometry x="580" y="160" width="80" height="80" as="geometry" />
        </mxCell>
        <mxCell id="6IBHpJLKZ1l4oTfqmNe9-15" value="" style="endArrow=classic;html=1;rounded=0;exitX=0.167;exitY=0.067;exitDx=0;exitDy=0;exitPerimeter=0;entryX=1;entryY=0.65;entryDx=0;entryDy=0;entryPerimeter=0;" edge="1" parent="1" source="6IBHpJLKZ1l4oTfqmNe9-11" target="6IBHpJLKZ1l4oTfqmNe9-1">
          <mxGeometry width="50" height="50" relative="1" as="geometry">
            <mxPoint x="220" y="280" as="sourcePoint" />
            <mxPoint x="270" y="230" as="targetPoint" />
          </mxGeometry>
        </mxCell>
        <mxCell id="6IBHpJLKZ1l4oTfqmNe9-16" value="Передает готовое блюдо официанту" style="text;html=1;align=center;verticalAlign=middle;resizable=0;points=[];autosize=1;strokeColor=none;fillColor=none;" vertex="1" parent="1">
          <mxGeometry x="220" y="220" width="220" height="20" as="geometry" />
        </mxCell>
        <mxCell id="6IBHpJLKZ1l4oTfqmNe9-17" value="" style="endArrow=classic;html=1;rounded=0;entryX=0.313;entryY=0.988;entryDx=0;entryDy=0;entryPerimeter=0;exitX=1.013;exitY=0.375;exitDx=0;exitDy=0;exitPerimeter=0;" edge="1" parent="1" source="6IBHpJLKZ1l4oTfqmNe9-1" target="6IBHpJLKZ1l4oTfqmNe9-7">
          <mxGeometry width="50" height="50" relative="1" as="geometry">
            <mxPoint x="160" y="180" as="sourcePoint" />
            <mxPoint x="210" y="130" as="targetPoint" />
          </mxGeometry>
        </mxCell>
        <mxCell id="6IBHpJLKZ1l4oTfqmNe9-19" value="Отдает готовое блюдо" style="text;html=1;align=center;verticalAlign=middle;resizable=0;points=[];autosize=1;strokeColor=none;fillColor=none;" vertex="1" parent="1">
          <mxGeometry x="200" y="140" width="140" height="20" as="geometry" />
        </mxCell>
        <mxCell id="6IBHpJLKZ1l4oTfqmNe9-20" value="" style="endArrow=classic;html=1;rounded=0;" edge="1" parent="1" target="6IBHpJLKZ1l4oTfqmNe9-13">
          <mxGeometry width="50" height="50" relative="1" as="geometry">
            <mxPoint x="160" y="370" as="sourcePoint" />
            <mxPoint x="210" y="320" as="targetPoint" />
          </mxGeometry>
        </mxCell>
        <mxCell id="6IBHpJLKZ1l4oTfqmNe9-21" value="Помыть посуду на кухне" style="text;html=1;align=center;verticalAlign=middle;resizable=0;points=[];autosize=1;strokeColor=none;fillColor=none;" vertex="1" parent="1">
          <mxGeometry x="430" y="270" width="150" height="20" as="geometry" />
        </mxCell>
        <mxCell id="6IBHpJLKZ1l4oTfqmNe9-23" value="" style="endArrow=classic;html=1;rounded=0;exitX=1;exitY=0.5;exitDx=0;exitDy=0;" edge="1" parent="1" source="6IBHpJLKZ1l4oTfqmNe9-7" target="6IBHpJLKZ1l4oTfqmNe9-13">
          <mxGeometry width="50" height="50" relative="1" as="geometry">
            <mxPoint x="400" y="420" as="sourcePoint" />
            <mxPoint x="450" y="370" as="targetPoint" />
          </mxGeometry>
        </mxCell>
        <mxCell id="6IBHpJLKZ1l4oTfqmNe9-24" value="Помыть столы" style="text;html=1;align=center;verticalAlign=middle;resizable=0;points=[];autosize=1;strokeColor=none;fillColor=none;" vertex="1" parent="1">
          <mxGeometry x="450" y="90" width="100" height="20" as="geometry" />
        </mxCell>
      </root>
    </mxGraphModel>
  </diagram>
</mxfile>
